<svg version="1.2" xmlns="http://www.w3.org/2000/svg" viewBox="0 0 20 18" width="20" height="18">
	<title>Nouveau projet</title>
	<style>
		.s0 { fill: #4b6a9b } 
	</style>
	<path id="Remplissage couleur unie 1" fill-rule="evenodd" class="s0" d="m6.3 0l2.2 2.8c1.2 1.6 2.2 2.9 2.2 3l5.1-5.8h1.5c1.5 0 1.5 0 1.5 0 0 0-1.5 1.7-3.3 3.8-1.9 2.1-3.4 3.8-3.4 3.8 0 0 1.8 2.4 4 5.2 2.1 2.9 3.9 5.2 3.9 5.2 0 0-1.4 0-6.2 0l-1.1-1.4c-0.5-0.8-1.6-2.2-2.4-3.1-0.7-1-1.3-1.8-1.3-1.8 0 0-0.2 0.2-5.5 6.3h-3.1c0 0 1.6-1.9 3.6-4.1 1.9-2.2 3.5-4 3.5-4 0.1-0.1-1.3-1.9-3.7-5-2.1-2.7-3.8-4.9-3.8-4.9 0 0 0.1 0 6.3 0zm-2.7 1.7c0 0 1.8 2.4 4 5.2 2.1 2.9 4.6 6 5.3 7 0.8 1 1.5 1.9 1.6 2l0.2 0.3c1.5 0 1.7 0 1.7 0 0 0-0.5-0.6-1-1.3-0.6-0.7-1.5-2-2.1-2.7-0.5-0.8-1.5-2-2-2.7-0.6-0.8-1.5-2-2.1-2.8-0.6-0.7-1.5-2-2.1-2.8-0.6-0.7-1.2-1.5-1.4-1.8l-0.3-0.4c-1.6 0-1.8 0-1.8 0z"/>
</svg>